<?xml version="1.0" standalone="no"?>
<!DOCTYPE svg PUBLIC "-//W3C//DTD SVG 20010904//EN"
 "http://www.w3.org/TR/2001/REC-SVG-20010904/DTD/svg10.dtd">
<svg version="1.0" xmlns="http://www.w3.org/2000/svg"
 width="296.000000pt" height="296.000000pt" viewBox="0 0 296.000000 296.000000"
 preserveAspectRatio="xMidYMid meet">
<metadata>
Created by potrace 1.14, written by Peter Selinger 2001-2017
</metadata>
<g transform="translate(0.000000,296.000000) scale(0.100000,-0.100000)"
fill="#000000" stroke="none">
<path d="M1458 2718 c-42 -106 -91 -233 -108 -283 -35 -100 -96 -328 -105
-390 -4 -22 -8 -47 -10 -55 -16 -61 -25 -313 -14 -390 4 -25 9 -67 13 -95 5
-44 41 -196 62 -264 6 -20 -1 -15 -32 19 -36 41 -77 80 -143 138 -97 85 -299
190 -481 249 -114 37 -345 93 -445 107 -22 4 -51 8 -65 11 -42 9 -100 13 -100
8 0 -5 131 -164 150 -183 3 -3 30 -34 60 -70 96 -114 231 -252 295 -301 17
-13 36 -29 44 -37 59 -57 218 -143 351 -190 87 -30 93 -32 110 -32 6 0 10 -4
10 -10 0 -5 -9 -10 -20 -10 -60 0 -257 -90 -380 -173 -81 -54 -269 -208 -310
-252 l-25 -28 195 7 c225 7 257 10 364 31 122 25 240 71 318 126 14 11 28 19
30 19 3 0 -7 -33 -20 -72 -20 -59 -25 -96 -27 -193 -3 -128 2 -195 15 -195 15
0 216 207 240 247 14 24 28 43 33 43 4 0 7 -97 7 -215 l0 -215 45 0 c29 0 45
4 46 13 1 6 1 102 1 212 l0 199 20 -44 c114 -249 386 -384 655 -325 195 43
349 179 414 366 18 51 23 86 23 174 0 95 -4 119 -27 178 -14 37 -41 89 -59
115 -45 66 -134 148 -190 176 l-47 24 57 48 c58 51 107 99 177 175 62 67 357
440 352 445 -4 5 -288 -58 -388 -86 -258 -71 -495 -181 -637 -294 -49 -39
-174 -163 -194 -192 -24 -35 -46 -47 -30 -17 9 17 58 180 67 219 2 10 10 51
18 89 66 310 28 552 -190 1218 l-48 149 -77 -194z"/>
</g>
</svg>
